<?xml version="1.0" encoding="iso-8859-1"?>
<!-- Generator: Adobe Illustrator 19.0.0, SVG Export Plug-In . SVG Version: 6.00 Build 0)  -->
<svg fill="#fff" version="1.1" id="Layer_1" xmlns="http://www.w3.org/2000/svg" xmlns:xlink="http://www.w3.org/1999/xlink" x="0px" y="0px"
	 viewBox="0 0 512 512" style="enable-background:new 0 0 512 512;" xml:space="preserve">
<g>
	<g>
		<path d="M452.995,71.488l11.249-31.431L352.329,0l-22.917,83.591h-82.759c-7.971-47.304-49.214-83.456-98.749-83.456
			c-55.221,0-100.148,44.926-100.148,100.148c0,52.041,39.902,94.932,90.718,99.7L161.338,512h238.48l31.393-428.409h-67.186
			l10.972-40.02L452.995,71.488z M90.413,134.17c-3.141-5.309-5.58-11.081-7.161-17.196h24.357L90.413,134.17z M83.253,83.591
			c1.58-6.116,4.019-11.888,7.161-17.196l17.195,17.196H83.253z M131.214,164.934c-6.116-1.58-11.888-4.019-17.196-7.161
			l17.196-17.195V164.934z M131.214,59.986L114.017,42.79c5.309-3.141,11.08-5.58,17.196-7.161V59.986z M205.397,66.394
			c3.141,5.309,5.58,11.081,7.161,17.196H188.2L205.397,66.394z M212.556,116.973c-1.579,6.116-4.018,11.888-7.159,17.196
			L188.2,116.973H212.556z M164.596,35.63c6.116,1.58,11.888,4.019,17.195,7.161l-17.195,17.195V35.63z M167.831,143.813
			l13.962,13.962c-3.932,2.327-8.123,4.255-12.517,5.745L167.831,143.813z M290.101,226.974H173.925l-2.157-29.424
			c38.446-9.434,68.238-41.123,74.885-80.575h73.606L290.101,226.974z M395.294,116.973l-8.061,110h-62.517l30.158-110
			C354.875,116.974,395.294,116.974,395.294,116.973z"/>
	</g>
</g>
<g>
</g>
<g>
</g>
<g>
</g>
<g>
</g>
<g>
</g>
<g>
</g>
<g>
</g>
<g>
</g>
<g>
</g>
<g>
</g>
<g>
</g>
<g>
</g>
<g>
</g>
<g>
</g>
<g>
</g>
</svg>
